<svg width="400" height="300" viewBox="0 0 400 300" fill="none" xmlns="http://www.w3.org/2000/svg">
  <rect width="400" height="300" fill="#f8fafc"/>
  <rect x="20" y="20" width="360" height="40" rx="8" fill="#1e293b"/>
  <rect x="30" y="30" width="100" height="20" rx="4" fill="#64748b"/>
  <rect x="320" y="30" width="50" height="20" rx="10" fill="#22c55e"/>
  
  <rect x="20" y="80" width="180" height="120" rx="8" fill="#ffffff" stroke="#e2e8f0"/>
  <path d="M40 160 L60 140 L80 150 L100 120 L120 130 L140 110 L160 120 L180 100" stroke="#3b82f6" stroke-width="3" fill="none"/>
  <circle cx="40" cy="160" r="3" fill="#3b82f6"/>
  <circle cx="60" cy="140" r="3" fill="#3b82f6"/>
  <circle cx="80" cy="150" r="3" fill="#3b82f6"/>
  <circle cx="100" cy="120" r="3" fill="#3b82f6"/>
  <circle cx="120" cy="130" r="3" fill="#3b82f6"/>
  <circle cx="140" cy="110" r="3" fill="#3b82f6"/>
  <circle cx="160" cy="120" r="3" fill="#3b82f6"/>
  <circle cx="180" cy="100" r="3" fill="#3b82f6"/>
  
  <rect x="220" y="80" width="160" height="60" rx="8" fill="#ffffff" stroke="#e2e8f0"/>
  <rect x="230" y="90" width="30" height="40" rx="4" fill="#10b981"/>
  <rect x="270" y="100" width="30" height="30" rx="4" fill="#f59e0b"/>
  <rect x="310" y="95" width="30" height="35" rx="4" fill="#ef4444"/>
  <rect x="350" y="85" width="20" height="45" rx="4" fill="#8b5cf6"/>
  
  <rect x="220" y="160" width="160" height="120" rx="8" fill="#ffffff" stroke="#e2e8f0"/>
  <circle cx="300" cy="220" r="40" fill="none" stroke="#e2e8f0" stroke-width="8"/>
  <circle cx="300" cy="220" r="40" fill="none" stroke="#3b82f6" stroke-width="8" stroke-dasharray="100 50" stroke-dashoffset="25"/>
  
  <text x="200" y="150" text-anchor="middle" fill="#64748b" font-family="Arial, sans-serif" font-size="14" font-weight="bold">Analytics Dashboard</text>
</svg>