<svg width="400" height="300" viewBox="0 0 400 300" fill="none" xmlns="http://www.w3.org/2000/svg">
  <rect width="400" height="300" fill="#f8fafc"/>
  
  <rect x="150" y="30" width="100" height="180" rx="12" fill="#1f2937" stroke="#374151" stroke-width="2"/>
  <rect x="155" y="40" width="90" height="160" rx="8" fill="#ffffff"/>
  
  <rect x="160" y="45" width="80" height="25" rx="4" fill="#3b82f6"/>
  <circle cx="170" cy="57" r="6" fill="#ffffff"/>
  <rect x="180" y="52" width="40" height="10" rx="2" fill="#ffffff"/>
  <circle cx="230" cy="57" r="4" fill="#ffffff"/>
  
  <rect x="160" y="80" width="80" height="30" rx="4" fill="#f3f4f6"/>
  <circle cx="170" cy="95" r="8" fill="#64748b"/>
  <rect x="185" y="88" width="50" height="6" rx="1" fill="#64748b"/>
  <rect x="185" y="98" width="35" height="4" rx="1" fill="#94a3b8"/>
  
  <rect x="160" y="120" width="80" height="30" rx="4" fill="#f3f4f6"/>
  <circle cx="170" cy="135" r="8" fill="#64748b"/>
  <rect x="185" y="128" width="45" height="6" rx="1" fill="#64748b"/>
  <rect x="185" y="138" width="30" height="4" rx="1" fill="#94a3b8"/>
  
  <rect x="160" y="160" width="80" height="30" rx="4" fill="#f3f4f6"/>
  <circle cx="170" cy="175" r="8" fill="#64748b"/>
  <rect x="185" y="168" width="40" height="6" rx="1" fill="#64748b"/>
  <rect x="185" y="178" width="25" height="4" rx="1" fill="#94a3b8"/>
  
  <circle cx="200" cy="220" r="15" fill="#10b981"/>
  <path d="M195 220 L198 223 L205 216" stroke="#ffffff" stroke-width="2" fill="none"/>
  
  <text x="200" y="260" text-anchor="middle" fill="#64748b" font-family="Arial, sans-serif" font-size="14" font-weight="bold">Social Mobile App</text>
</svg>