<svg width="400" height="300" viewBox="0 0 400 300" fill="none" xmlns="http://www.w3.org/2000/svg">
  <rect width="400" height="300" fill="#f8fafc"/>
  <rect x="20" y="20" width="360" height="40" rx="8" fill="#e2e8f0"/>
  <rect x="30" y="30" width="80" height="20" rx="4" fill="#64748b"/>
  <rect x="300" y="30" width="70" height="20" rx="4" fill="#3b82f6"/>
  
  <rect x="20" y="80" width="170" height="200" rx="8" fill="#ffffff" stroke="#e2e8f0"/>
  <rect x="30" y="90" width="150" height="100" rx="4" fill="#f1f5f9"/>
  <rect x="30" y="200" width="100" height="16" rx="2" fill="#64748b"/>
  <rect x="30" y="220" width="80" height="12" rx="2" fill="#94a3b8"/>
  <rect x="30" y="250" width="60" height="20" rx="4" fill="#10b981"/>
  
  <rect x="210" y="80" width="170" height="200" rx="8" fill="#ffffff" stroke="#e2e8f0"/>
  <rect x="220" y="90" width="150" height="100" rx="4" fill="#f1f5f9"/>
  <rect x="220" y="200" width="120" height="16" rx="2" fill="#64748b"/>
  <rect x="220" y="220" width="90" height="12" rx="2" fill="#94a3b8"/>
  <rect x="220" y="250" width="70" height="20" rx="4" fill="#f59e0b"/>
  
  <text x="200" y="150" text-anchor="middle" fill="#64748b" font-family="Arial, sans-serif" font-size="14" font-weight="bold">E-commerce Platform</text>
</svg>